<svg version="1.1" id="Layer_1" xmlns="http://www.w3.org/2000/svg" xmlns:xlink="http://www.w3.org/1999/xlink" x="0px" y="0px"
	 width="100%" viewBox="0 0 1024 1024" enable-background="new 0 0 1024 1024" xml:space="preserve">
<path fill="#000000" opacity="1.000000" stroke="none" 
	d="
M456.300537,261.345886 
	C471.090698,240.778366 487.824097,222.605576 507.889526,207.562775 
	C512.294922,204.260117 515.571228,204.326401 519.736328,207.835205 
	C564.246704,245.331299 593.743286,292.116852 607.142334,348.843872 
	C611.754883,368.371643 613.523376,388.254059 613.352173,408.305786 
	C613.218445,423.960632 613.927612,439.632324 612.553650,455.262390 
	C612.321777,457.899475 613.660828,459.619263 615.157715,461.469452 
	C627.731323,477.010162 640.222595,492.617523 652.812500,508.144928 
	C662.930420,520.623596 666.983948,535.096619 667.006592,550.878235 
	C667.048462,580.039368 666.996277,609.200623 666.972351,638.361816 
	C666.970337,640.860168 667.118225,643.389038 666.792358,645.850220 
	C666.109619,651.006775 663.568176,655.010986 658.430725,656.686768 
	C653.398804,658.328125 648.885315,657.196228 645.228455,653.238953 
	C636.524109,643.819580 628.598083,633.705017 619.453247,624.672668 
	C611.156921,616.478394 602.980408,608.159119 594.903687,599.748352 
	C591.944031,596.666321 590.189880,597.189758 588.080505,600.644287 
	C582.344910,610.037598 573.764587,614.867249 562.808533,615.141602 
	C558.978577,615.237488 557.858887,616.901611 557.156677,620.454834 
	C556.071838,625.943176 557.007690,630.647827 558.519836,636.105896 
	C565.965698,662.980469 563.414490,689.204956 550.313354,714.057922 
	C547.382080,719.618713 545.347412,720.179932 539.190979,718.777222 
	C534.741577,727.200684 531.369629,736.357727 525.050232,743.819214 
	C525.642700,737.005249 529.058838,731.228394 530.993042,724.958496 
	C532.084045,721.421936 532.609070,718.043091 530.810608,714.814026 
	C528.540527,710.738037 529.157043,706.810547 530.614380,702.774292 
	C535.391968,689.541748 538.632812,675.988708 538.613464,661.841003 
	C538.607849,657.697571 537.975952,653.550598 537.549316,649.413635 
	C537.213684,646.158508 535.523926,644.711853 532.125244,645.424377 
	C518.737488,648.230896 505.329834,648.019043 491.933472,645.476074 
	C488.145416,644.757019 486.422455,646.286621 485.940277,650.066101 
	C484.123718,664.304688 485.284332,678.264648 489.239197,692.050537 
	C490.552917,696.629944 492.491425,701.299194 489.279022,705.984497 
	C488.353668,707.334167 489.740326,708.441223 490.086273,709.668701 
	C491.778076,715.670715 492.672394,721.716797 491.301392,728.025635 
	C488.756714,727.485046 488.339233,725.852600 487.835236,724.552917 
	C486.458069,721.001282 485.350555,718.234619 480.178162,719.230896 
	C476.363953,719.965515 474.340698,715.830139 472.678284,712.799316 
	C466.681915,701.866943 463.231659,690.090881 461.721313,677.743774 
	C459.729187,661.457703 460.602814,645.529724 467.530701,630.301880 
	C469.175262,626.687073 466.743988,623.169800 466.417999,619.578979 
	C465.961639,614.551880 461.712952,615.538940 458.349457,615.057739 
	C448.626129,613.666321 440.648346,609.432617 435.645020,600.572510 
	C434.924927,599.297241 434.484253,597.773193 432.939545,597.083862 
	C431.178986,596.984558 430.355347,598.413025 429.332458,599.429443 
	C412.434113,616.220947 395.298218,632.781555 380.190125,651.279785 
	C375.333771,657.225830 370.429840,658.717896 364.885468,656.624512 
	C359.292694,654.512939 356.714783,650.151367 356.711212,642.615356 
	C356.696747,612.120850 356.838776,581.625488 356.648499,551.132141 
	C356.543304,534.273499 361.564362,519.422485 372.254700,506.388763 
	C383.770386,492.348633 395.027863,478.094879 406.666840,464.158875 
	C409.772949,460.439728 411.046112,456.763214 410.917786,451.936554 
	C410.413391,432.962463 409.665039,413.998474 410.676300,394.993530 
	C413.147430,348.551910 426.291046,305.683411 452.432220,267.009552 
	C453.645264,265.214935 454.871307,263.429077 456.300537,261.345886 
M596.742798,446.457672 
	C596.784729,432.294220 597.039612,418.127594 596.825623,403.967987 
	C596.334595,371.471741 590.315613,340.159515 576.804932,310.381805 
	C563.431519,280.906830 544.170898,256.358551 517.836121,237.385605 
	C514.281860,234.824982 511.565857,234.820923 508.025574,237.187271 
	C500.937042,241.925217 494.204956,247.116364 488.021820,252.931564 
	C465.709381,273.916321 450.602478,299.523651 440.232391,328.143738 
	C429.462708,357.866577 426.495209,388.813232 426.528046,420.057587 
	C426.555023,445.680695 428.043427,471.267303 431.077667,496.777832 
	C434.759827,527.735352 440.451630,558.262939 448.262817,588.417725 
	C449.947540,594.921509 454.068787,598.456238 460.739197,598.623108 
	C471.232330,598.885620 481.734406,598.769592 492.231262,598.916992 
	C495.297211,598.960022 496.811798,597.966431 496.818268,594.629333 
	C496.856445,574.969543 498.023102,555.352173 499.720490,535.778870 
	C500.868622,522.539429 501.813293,509.242615 504.895966,496.249207 
	C505.798157,492.446411 507.776703,489.121857 512.036804,488.964996 
	C516.428711,488.803284 518.271484,492.277618 519.371033,495.957062 
	C521.143677,501.889008 521.460449,508.076935 522.212097,514.172668 
	C525.475403,540.638306 526.722839,567.241943 527.176025,593.882263 
	C527.245056,597.937073 528.830444,599.057434 532.569031,598.943909 
	C539.895691,598.721313 547.231567,598.817993 554.563232,598.743469 
	C572.240173,598.563782 573.194336,597.710815 577.406006,580.581665 
	C588.164917,536.824524 594.820740,492.479370 596.742798,446.457672 
M405.567108,492.269348 
	C397.561096,502.065857 389.217651,511.610718 381.661102,521.742432 
	C376.102356,529.195618 373.250458,537.958618 373.248169,547.440735 
	C373.242584,570.594666 373.231781,593.748596 373.257202,616.902527 
	C373.259888,619.348572 373.067627,621.869324 374.455414,624.117432 
	C377.972992,621.886108 378.851318,618.630371 378.882202,614.710388 
	C379.039703,594.726929 379.684082,574.741699 379.498871,554.763123 
	C379.370209,540.884888 383.656586,528.998962 392.573822,518.555786 
	C397.764191,512.477295 402.882538,506.334320 407.908478,500.119446 
	C410.937317,496.374146 410.210388,493.479675 405.567108,492.269348 
M510.007355,589.748535 
	C508.484314,601.776672 506.826141,613.796265 506.943054,625.958557 
	C506.962738,628.004028 506.406525,631.052124 509.301270,631.198608 
	C512.431213,631.356995 511.782593,628.260315 511.787628,626.271301 
	C511.820282,613.305237 511.766693,600.338989 511.682739,587.373108 
	C511.677765,586.605408 512.229187,585.428223 510.636536,584.878967 
	C510.427826,586.359009 510.245056,587.655396 510.007355,589.748535 
M628.231506,506.173309 
	C628.402466,513.003967 630.836243,518.858459 635.671936,523.729431 
	C637.047302,525.114807 638.014465,527.287720 640.481262,525.401550 
	C642.569092,523.805115 642.196533,522.005676 640.875000,520.187256 
	C637.170105,515.089417 633.623657,509.850433 628.231506,506.173309 
M648.263245,553.511841 
	C651.579773,546.933228 649.786682,540.591980 647.818176,533.974121 
	C645.726929,534.807495 643.774780,534.399292 642.461304,535.735107 
	C643.289978,540.626953 644.105835,545.352661 644.883545,550.084656 
	C645.156982,551.747742 645.238098,553.499084 648.263245,553.511841 
z"/>
<path fill="#000000" opacity="1.000000" stroke="none" 
	d="
M257.532837,628.342957 
	C244.058578,595.401428 238.313980,561.392273 240.007767,526.365112 
	C241.957840,486.038055 252.570114,447.886993 272.292145,412.522064 
	C299.536469,363.668488 338.326660,326.799316 388.343231,301.747803 
	C389.385498,301.225739 390.431213,300.705719 391.501343,300.245300 
	C393.017822,299.592834 394.624207,298.605774 396.184265,299.890015 
	C398.021576,301.402466 396.996368,303.240112 396.375519,304.928772 
	C391.424255,318.396057 387.221802,332.069946 385.074982,346.297852 
	C384.593628,349.488190 382.464966,351.080505 379.944336,352.584686 
	C350.286682,370.283264 325.938538,393.644989 306.386658,422.029114 
	C285.938354,451.714661 272.617432,484.360657 267.409485,520.038391 
	C257.917969,585.061646 274.877991,643.393860 313.062103,696.136475 
	C320.705353,706.693848 329.364655,716.359253 338.855621,725.289490 
	C339.738708,726.120422 341.240265,726.688721 340.512665,729.419556 
	C302.337769,704.097778 275.368469,670.263916 257.532837,628.342957 
z"/>
<path fill="#000000" opacity="1.000000" stroke="none" 
	d="
M637.002808,329.927094 
	C634.534790,322.071564 632.124878,314.628937 629.847290,307.145996 
	C629.155884,304.874176 627.039062,302.150543 629.471802,300.218933 
	C631.761414,298.401001 634.207703,300.703247 636.335938,301.791351 
	C664.457947,316.169006 689.742615,334.377380 711.345093,357.540710 
	C746.812012,395.570251 769.501099,440.186493 778.789185,491.266113 
	C788.937378,547.076294 781.825134,600.691833 755.451721,651.271667 
	C739.439270,681.980896 716.781982,706.943420 688.520081,726.868164 
	C687.650574,727.481079 686.779907,728.538574 685.183655,727.791687 
	C685.137878,725.732849 686.900085,724.826416 688.080383,723.609741 
	C724.246155,686.330627 747.632507,642.419983 755.665588,590.940063 
	C763.243652,542.376648 756.431946,495.658417 734.795105,451.424469 
	C714.691589,410.325073 685.120972,377.550446 646.184998,353.418518 
	C642.565369,351.175110 640.614929,348.613892 639.982971,344.515198 
	C639.248291,339.750671 638.087524,335.051819 637.002808,329.927094 
z"/>
<path fill="#000000" opacity="1.000000" stroke="none" 
	d="
M644.422974,769.300964 
	C689.674500,748.292419 728.267822,719.751099 755.684082,677.322510 
	C757.254761,679.293091 756.028870,680.519348 755.429749,681.703125 
	C740.412476,711.378540 720.102661,736.845642 694.804382,758.434204 
	C656.137207,791.431091 611.500488,811.922546 561.848022,821.542908 
	C526.090698,828.471130 490.269989,827.464539 454.740265,819.549194 
	C396.119690,806.489502 346.225037,778.007996 305.465424,733.844666 
	C290.572571,717.708252 278.890930,699.271362 268.746735,679.848511 
	C268.384979,679.155762 268.280945,678.328430 268.055206,677.558350 
	C269.876648,676.566284 270.362488,678.013611 270.894897,678.855042 
	C289.273834,707.901794 314.297058,730.001770 343.108704,748.191772 
	C381.754333,772.590576 423.918396,787.273743 469.049622,793.511414 
	C493.722443,796.921448 518.549011,796.609497 543.367676,795.146240 
	C545.359802,795.028809 547.368469,795.032654 549.361755,795.133179 
	C552.609497,795.296936 554.516479,796.864502 553.582336,800.298889 
	C552.274963,805.106079 555.232666,806.707336 558.903992,807.568848 
	C574.723572,811.280701 590.320862,810.283813 605.403198,804.310181 
	C611.613770,801.850464 617.955200,799.918823 624.291077,797.912292 
	C633.453857,795.010681 639.076721,785.736633 637.132690,776.349182 
	C636.787170,774.680847 637.578064,773.752625 638.641174,772.981140 
	C640.387878,771.713623 642.270874,770.633972 644.422974,769.300964 
z"/>
<path fill="#000000" opacity="1.000000" stroke="none" 
	d="
M535.346741,425.522186 
	C501.304565,443.069092 462.829742,419.102234 462.273163,380.538849 
	C461.870941,352.666595 481.261078,330.791901 510.178101,328.017731 
	C532.832642,325.844391 557.005859,345.499573 561.281921,369.848389 
	C565.345337,392.986694 556.166931,412.868469 535.346741,425.522186 
z"/>
</svg>